<svg width="211" height="159" viewBox="0 0 211 159" fill="none" xmlns="http://www.w3.org/2000/svg">
<path fill-rule="evenodd" clip-rule="evenodd" d="M129.641 18.3841C129.641 18.768 129.629 19.149 129.606 19.527C137.151 21.8761 142.619 28.8388 142.619 37.0629C142.619 47.2141 134.284 55.448 123.997 55.448C120.575 55.448 117.37 54.5369 114.614 52.9472C111.948 55.507 108.308 57.0837 104.296 57.0837C99.2189 57.0837 94.7377 54.5581 92.0713 50.7103C89.7106 52.2821 86.8663 53.1998 83.805 53.1998C75.6326 53.1998 69.0078 46.6563 69.0078 38.587C69.0078 36.0052 69.6862 33.5794 70.8766 31.4741C70.1391 29.4951 69.7365 27.3563 69.7365 25.1247C69.7365 14.9723 78.0725 6.74266 88.3559 6.74266C90.9015 6.74266 93.328 7.24695 95.5384 8.15987C98.8809 3.23884 104.568 0 111.023 0C121.306 0 129.641 8.22969 129.641 18.3841ZM130.186 67.2717C130.186 71.8651 126.418 75.589 121.765 75.589C117.11 75.589 113.341 71.8651 113.341 67.2717C113.341 62.6815 117.11 58.9587 121.765 58.9587C126.418 58.9587 130.186 62.6815 130.186 67.2717ZM113.503 81.5884C113.503 84.6369 111.002 87.1072 107.915 87.1072C104.834 87.1072 102.328 84.6369 102.328 81.5884C102.328 78.5462 104.834 76.0738 107.915 76.0738C111.002 76.0738 113.503 78.5462 113.503 81.5884Z" fill="white"/>
<path d="M10.3508 150.684C17.4307 150.684 21.3226 147.524 21.3226 142.161C21.3226 137.089 17.0995 135.052 12.2553 133.971C8.94309 133.223 6.5417 133.015 6.5417 130.687C6.5417 128.733 8.23923 127.486 11.1789 127.486C14.0357 127.486 16.7269 128.941 18.3002 130.812C18.4244 130.937 20.743 129.523 20.743 127.611C20.743 125.324 17.5963 122.705 11.0961 122.705C4.67856 122.705 0.662451 126.031 0.662451 131.02C0.662451 136.507 5.05119 138.17 9.35712 139.126C12.5038 139.833 15.195 140.207 15.195 142.619C15.195 144.697 13.4974 145.903 10.3094 145.903C6.99714 145.903 3.9333 144.157 2.31858 142.203C2.11156 142.037 0 143.575 0 145.279C0 147.732 3.22945 150.684 10.3508 150.684Z" fill="white"/>
<path d="M25.2796 150.31H25.9007C27.3912 150.31 28.4677 149.644 28.4677 147.524V125.948C28.4677 122.165 26.5631 121.25 24.8242 121.25C23.6649 121.25 22.6298 121.707 22.6298 121.915V147.524C22.6298 149.686 23.7477 150.31 25.2796 150.31Z" fill="white"/>
<path d="M35.0143 138.17C35.387 135.426 37.4571 133.472 40.1897 133.472C43.0051 133.472 44.7855 135.343 44.9097 138.17H35.0143ZM35.0143 141.579H48.9258C50.0023 141.579 50.2921 140.997 50.3335 139.958V139.542C50.3335 133.597 46.2346 129.398 40.2725 129.398C34.1449 129.398 29.7147 133.971 29.7147 140.166C29.7147 146.568 34.0621 150.684 40.6452 150.684C46.276 150.684 49.3812 148.231 49.3812 146.069C49.3812 143.699 46.6072 143.325 46.5658 143.408C45.6135 145.03 43.916 146.402 40.8522 146.402C37.7055 146.402 35.4284 144.614 35.0143 141.579Z" fill="white"/>
<path d="M55.552 138.17C55.9246 135.426 57.9948 133.472 60.7274 133.472C63.5428 133.472 65.3232 135.343 65.4474 138.17H55.552ZM55.552 141.579H69.4635C70.54 141.579 70.8298 140.997 70.8712 139.958V139.542C70.8712 133.597 66.7723 129.398 60.8102 129.398C54.6825 129.398 50.2524 133.971 50.2524 140.166C50.2524 146.568 54.5997 150.684 61.1828 150.684C66.8137 150.684 69.9189 148.231 69.9189 146.069C69.9189 143.699 67.1449 143.325 67.1035 143.408C66.1512 145.03 64.4537 146.402 61.3899 146.402C58.2432 146.402 55.966 144.614 55.552 141.579Z" fill="white"/>
<path d="M77.7044 137.38C78.5739 135.385 80.3542 134.096 82.797 134.096C85.8608 134.096 87.9724 136.507 87.9724 140.083C87.9724 143.616 85.9023 146.028 82.7556 146.028C79.9402 146.028 77.7044 144.032 77.7044 141.163V137.38ZM77.7044 146.984C78.7809 149.021 81.0995 150.684 84.1633 150.684C89.7527 150.684 93.6032 146.319 93.6032 139.999C93.6032 133.514 89.7113 129.398 84.2461 129.398C81.1823 129.398 78.9465 130.853 77.6216 133.181C77.2904 130.354 75.5929 129.648 74.0609 129.648C72.9016 129.648 71.8666 130.147 71.8666 130.313V155.423C71.8666 157.585 72.9431 158.25 74.5164 158.25H75.1374C76.6279 158.25 77.7044 157.543 77.7044 155.423V146.984Z" fill="white"/>
<path d="M108.751 150.684C115.831 150.684 119.723 147.524 119.723 142.161C119.723 137.089 115.5 135.052 110.656 133.971C107.343 133.223 104.942 133.015 104.942 130.687C104.942 128.733 106.64 127.486 109.579 127.486C112.436 127.486 115.127 128.941 116.701 130.812C116.825 130.937 119.143 129.523 119.143 127.611C119.143 125.324 115.997 122.705 109.496 122.705C103.079 122.705 99.0628 126.031 99.0628 131.02C99.0628 136.507 103.452 138.17 107.757 139.126C110.904 139.833 113.595 140.207 113.595 142.619C113.595 144.697 111.898 145.903 108.71 145.903C105.398 145.903 102.334 144.157 100.719 142.203C100.512 142.037 98.4004 143.575 98.4004 145.279C98.4004 147.732 101.63 150.684 108.751 150.684Z" fill="white"/>
<path d="M130.429 150.684C136.474 150.684 139.041 147.15 139.041 145.238C139.041 142.743 135.894 142.411 135.811 142.619C135.024 144.572 133.451 145.986 130.677 145.986C127.489 145.986 125.171 143.492 125.171 140.041C125.171 136.59 127.489 134.138 130.677 134.138C133.534 134.138 135.024 135.551 135.811 137.505C135.935 137.713 139.041 137.297 139.041 134.928C139.041 133.015 136.598 129.44 130.429 129.44C124.26 129.44 119.788 133.847 119.788 140.041C119.788 146.277 124.177 150.684 130.429 150.684Z" fill="white"/>
<path d="M145.744 133.057V125.948C145.744 122.165 143.84 121.25 142.101 121.25C140.941 121.25 139.906 121.707 139.906 121.915V147.524C139.906 149.686 140.983 150.31 142.556 150.31H143.177C144.668 150.31 145.744 149.644 145.744 147.524V139.043C145.744 136.133 147.483 134.304 150.216 134.304C152.534 134.304 153.942 135.967 153.942 138.794V147.524C153.942 149.686 155.018 150.31 156.592 150.31H157.213C158.703 150.31 159.78 149.644 159.78 147.524V137.962C159.78 133.223 157.544 129.398 152.244 129.398C149.139 129.398 147.028 130.937 145.744 133.057Z" fill="white"/>
<path d="M171.426 150.684C177.885 150.684 182.232 146.402 182.232 140.083C182.232 133.763 177.885 129.398 171.509 129.398C165.091 129.398 160.661 133.763 160.661 140.041C160.661 146.402 165.009 150.684 171.426 150.684ZM171.468 146.069C168.197 146.069 165.795 143.533 165.795 140.041C165.795 136.507 168.197 133.971 171.468 133.971C174.738 133.971 177.098 136.549 177.098 140.083C177.098 143.533 174.697 146.069 171.468 146.069Z" fill="white"/>
<path d="M193.056 150.684C199.514 150.684 203.862 146.402 203.862 140.083C203.862 133.763 199.514 129.398 193.138 129.398C186.721 129.398 182.291 133.763 182.291 140.041C182.291 146.402 186.638 150.684 193.056 150.684ZM193.097 146.069C189.826 146.069 187.425 143.533 187.425 140.041C187.425 136.507 189.826 133.971 193.097 133.971C196.368 133.971 198.728 136.549 198.728 140.083C198.728 143.533 196.326 146.069 193.097 146.069Z" fill="white"/>
<path d="M207.812 150.31H208.433C209.924 150.31 211 149.644 211 147.524V125.948C211 122.165 209.095 121.25 207.357 121.25C206.197 121.25 205.162 121.707 205.162 121.915V147.524C205.162 149.686 206.28 150.31 207.812 150.31Z" fill="white"/>
</svg>
